<?xml version="1.0" standalone="no"?><!DOCTYPE svg PUBLIC "-//W3C//DTD SVG 1.1//EN" "http://www.w3.org/Graphics/SVG/1.1/DTD/svg11.dtd"><svg class="icon" width="200px" height="200.00px" viewBox="0 0 1024 1024" version="1.1" xmlns="http://www.w3.org/2000/svg"><path fill="#2c2c2c" d="M929.056 216l-188.352 0 0-80.704c0-44.576-36.128-80.736-80.736-80.736l-322.88 0c-44.576 0-80.736 36.128-80.736 80.736l0 80.704-161.44 0c-44.576 0-80.736 36.128-80.736 80.704l0 591.968c0 44.576 36.128 80.736 80.736 80.736l834.112 0c44.608 0 80.736-36.128 80.736-80.736l0-591.968c0-44.576-36.128-80.736-80.736-80.736l0 0zM310.208 162.208c0-29.696 24.096-53.824 53.792-53.824l269.056 0c29.696 0 53.792 24.096 53.792 53.824l0 53.792-376.672 0 0-53.792zM955.968 861.792c0 29.696-24.096 53.792-53.824 53.792l-780.32 0c-29.696 0-53.824-24.096-53.824-53.792l0-269.056 403.616 0 0 13.44c0 22.304 18.08 40.352 40.352 40.352s40.352-18.048 40.352-40.352l0-13.44 403.616 0 0 269.056 0 0zM955.968 538.912l-403.616 0 0-67.264c0-22.272-18.08-40.352-40.352-40.352s-40.352 18.08-40.352 40.352l0 67.264-403.616 0 0-215.264c0-29.696 24.096-53.824 53.824-53.824l780.288 0c29.696 0 53.824 24.096 53.824 53.824l0 215.264z" /></svg>