<?xml version="1.0" standalone="no"?><!DOCTYPE svg PUBLIC "-//W3C//DTD SVG 1.1//EN" "http://www.w3.org/Graphics/SVG/1.1/DTD/svg11.dtd"><svg class="icon" width="200px" height="200.00px" viewBox="0 0 1024 1024" version="1.1" xmlns="http://www.w3.org/2000/svg"><path fill="#2c2c2c" d="M667.488 832.992q13.504 0 23.008-9.504t9.504-23.488V417.984q0-14.016-9.504-23.488t-23.008-9.504-22.496 9.504-8.992 23.488V800q0 14.016 8.992 23.488t22.496 9.504z m-35.488 89.024q0-15.008 10.496-25.504t25.504-10.496 25.504 10.496 10.496 25.504-10.496 26.016-25.504 11.008-25.504-11.008-10.496-26.016zM542.016 252H225.024q-12.992 0-22.496 10.496T193.024 288t9.504 25.504 22.496 10.496h316.992q14.016 0 23.488-10.496T575.008 288t-9.504-25.504-23.488-10.496z m-317.024 264H352q14.016 0 23.488-10.496t9.504-25.504-9.504-25.504-23.488-10.496H224.992q-12.992 0-22.496 10.496T192.992 480t9.504 25.504 22.496 10.496z m0 192H416q14.016 0 23.488-10.496t9.504-25.504-9.504-25.504-23.488-10.496H224.992q-12.992 0-22.496 10.496T192.992 672t9.504 25.504 22.496 10.496z m632-644.992H166.976q-42.016 0-72 30.016t-30.016 72V855.04q0 42.016 30.016 72t72 30.016h254.016q15.008 0 25.504-10.496t10.496-25.504-10.496-25.504-25.504-10.496H166.976q-12 0-20.992-8.992t-8.992-20.992V165.056q0-12 8.992-20.992t20.992-8.992h690.016q12 0 20.992 8.992t8.992 20.992v690.016q0 12-8.992 20.992t-20.992 8.992h-68.992q-15.008 0-25.504 10.496t-10.496 25.504 10.496 25.504 25.504 10.496h68.992q42.016 0 72-30.016t30.016-72V165.024q0-42.016-30.016-72t-72-30.016z" /></svg>