<?xml version="1.0" standalone="no"?><!DOCTYPE svg PUBLIC "-//W3C//DTD SVG 1.1//EN" "http://www.w3.org/Graphics/SVG/1.1/DTD/svg11.dtd"><svg class="icon" width="200px" height="200.00px" viewBox="0 0 1024 1024" version="1.1" xmlns="http://www.w3.org/2000/svg"><path fill="#000000" d="M908.8 104.96a64 64 0 0 0-80.64-49.28L496 133.76l24.32 103.04a103.04 103.04 0 0 0 44.8 192l24.96 102.4 103.04-24.32a103.04 103.04 0 0 0 87.68 49.28 104.32 104.32 0 0 0 23.68 0 103.04 103.04 0 0 0 78.72-91.52l103.04-24.32z m-97.28 307.84l7.68 31.36a39.04 39.04 0 0 1-75.52 17.92l-7.04-31.36L640 454.4l-25.6-98.56-31.36 7.68a39.04 39.04 0 1 1-17.92-75.52l31.36-7.04L576 181.76l273.28-64 64 270.08z"  /><path fill="#000000" d="M640 594.56a39.04 39.04 0 0 1-78.08 0v-32H464V461.44h-32a39.04 39.04 0 0 1 0-77.44h32V218.88H122.88a64 64 0 0 0-64 64v618.88a64 64 0 0 0 64 64h618.88a64 64 0 0 0 64-64v-339.2H640zM122.88 282.88h277.12v42.24a103.04 103.04 0 0 0 0 195.84v42.24H298.88v32a39.04 39.04 0 0 1-78.08 0v-32H120.32z m309.12 522.88h-32v101.12H119.68V626.56h42.24a103.04 103.04 0 0 0 195.84 0h42.24v101.12h32a39.04 39.04 0 0 1 0 78.08zM704 626.56h42.24v280.32H464v-42.24a103.04 103.04 0 0 0 0-195.84v-42.24h42.24a103.04 103.04 0 0 0 195.84 0z"  /></svg>