<?xml version="1.0" standalone="no"?><!DOCTYPE svg PUBLIC "-//W3C//DTD SVG 1.1//EN" "http://www.w3.org/Graphics/SVG/1.1/DTD/svg11.dtd"><svg class="icon" width="200px" height="200.00px" viewBox="0 0 1024 1024" version="1.1" xmlns="http://www.w3.org/2000/svg"><path fill="#2c2c2c" d="M892.992247 212.275661c-52.078099-62.33572-123.779118-96.67276-223.293599-96.67276 0 0-102.348016 11.653411-159.495574 32.571836-56.660464-20.918425-110.99086-32.041764-161.681356-32.041764-89.450265 0-167.146834 33.706683-218.770586 95.39465-55.936987 66.841338-77.435627 160.630421-58.989509 257.554914 14.680351 77.048817 81.891102 233.70267 366.864482 417.867086 5.649674 3.867074 33.211403 21.447475 66.51388 21.447475 33.664727 0 64.234977-18.97619 67.61598-21.137413 297.383014-183.659927 366.796944-340.901157 381.662513-418.244686C971.948507 372.637975 948.769598 279.05867 892.992247 212.275661zM821.946145 485.71331 745.233995 485.71331l-37.607526 97.546663c-2.698458 7.012717-9.651824 11.45182-17.135262 10.997472-7.499811-0.470721-13.831007-5.742794-15.638165-13.031804L646.837988 468.61284l-44.208874 114.648157c-2.622734 6.801916-9.348925 11.18269-16.529465 11.014868-7.290033-0.185218-13.663184-4.951779-15.916505-11.888771L511.816828 402.763087l-50.758034 179.000813c-2.01796 7.113001-8.349155 12.140505-15.731286 12.502755-7.322779 0.319272-14.166651-4.027733-16.866133-10.913561l-47.789423-121.888048-47.790446 121.888048c-0.369414 0.941442-0.967024 1.697665-1.479701 2.530636-0.050142 0.101307-0.101307 0.193405-0.159636 0.285502-2.412956 3.808746-6.04467 6.448876-10.257621 7.499811-0.11768 0.033769-0.193405 0.11768-0.302899 0.143263-1.033539 0.243547-2.050706 0.302899-3.068895 0.36225-0.260943 0.017396-0.50449 0.11768-0.765433 0.11768-0.025583 0-0.059352-0.016373-0.084934-0.016373-0.041956 0-0.075725 0.016373-0.11768 0.016373-2.119267 0-4.1536-0.462534-6.070252-1.194198-0.008186 0-0.008186 0-0.008186 0-0.017396-0.008186-0.025583-0.017396-0.033769-0.024559-2.059915-0.789992-3.867074-2.026146-5.481851-3.523243-0.185218-0.185218-0.336668-0.378623-0.520863-0.572028-1.337461-1.362021-2.412956-2.925632-3.244904-4.708232-0.109494-0.23536-0.201591-0.454348-0.302899-0.697895-0.344854-0.831948-0.849344-1.572822-1.067308-2.480494l-22.902616-95.378278-74.955132 0c-9.508561 0-17.219173-7.701402-17.219173-17.219173 0-9.501398 7.709589-17.219173 17.219173-17.219173l88.525196 0c7.962346 0 14.881942 5.464455 16.739243 13.199627l13.368472 55.625902 43.947931-112.100124c2.580778-6.600325 8.945743-10.93812 16.033162-10.93812 7.079232 0 13.444197 4.338818 16.024975 10.93812l45.166689 115.203812 52.271504-184.29847c2.068102-7.290033 8.66024-12.375865 16.235776-12.519128 7.567349-0.23536 14.361079 4.682649 16.706497 11.888771l60.872393 187.341782 46.36805-120.273271c2.699482-7.003508 9.643638-11.450796 17.135262-10.988262 7.499811 0.470721 13.831007 5.734608 15.639189 13.031804l28.01403 112.613824 22.246677-57.694003c2.564405-6.642281 8.945743-11.031241 16.066931-11.031241l88.525196 0c9.509585 0 17.219173 7.717775 17.219173 17.219173C839.165318 478.011908 831.454706 485.71331 821.946145 485.71331z" /></svg>