<?xml version="1.0" standalone="no"?><!DOCTYPE svg PUBLIC "-//W3C//DTD SVG 1.1//EN" "http://www.w3.org/Graphics/SVG/1.1/DTD/svg11.dtd"><svg class="icon" width="200px" height="200.00px" viewBox="0 0 1024 1024" version="1.1" xmlns="http://www.w3.org/2000/svg"><path fill="#000000" d="M354.757235 899.700019H160.540881v58.266032h699.174984v-58.266032H354.757235zM898.553405 64.609507H121.696178c-32.185027 0-58.261938 26.057469-58.261938 58.262961v543.776728c0 32.1707 26.076912 58.267055 58.261938 58.267055h776.857227c32.171724 0 58.272171-26.096355 58.272171-58.267055V122.872468c0-32.205493-26.100448-58.262962-58.272171-58.262961z m7.684006 587.569116h-0.010233c0 10.948353-8.868995 19.803022-19.804045 19.803021H133.830543c-10.94733 0-19.808138-8.853645-19.808138-19.803021V137.26527c0-10.943236 8.860808-19.804045 19.808138-19.804045h752.59259c10.93505 0 19.813255 8.859785 19.813255 19.804045v514.913353zM680.001807 850.993714V795.879466H350.91779v55.114248h329.084017zM634.090151 190.606129h-55.113225v395.08215h55.113225V190.606129zM809.075511 255.583003h-55.113225v332.151889h55.113225V255.583003zM451.941648 316.978305h-55.113226v267.687691h55.113226V316.978305zM279.0029 382.466831h-55.113225v203.222472h55.113225V382.466831z" /></svg>