<?xml version="1.0" standalone="no"?><!DOCTYPE svg PUBLIC "-//W3C//DTD SVG 1.1//EN" "http://www.w3.org/Graphics/SVG/1.1/DTD/svg11.dtd"><svg class="icon" width="200px" height="200.00px" viewBox="0 0 1024 1024" version="1.1" xmlns="http://www.w3.org/2000/svg"><path fill="#000000" d="M769.952 704h-65.92a32 32 0 0 1 0-64h46.4c11.84-30.592 17.824-63.168 17.6-96a256 256 0 0 0-512 0 261.088 261.088 0 0 0 17.6 96h46.4a32 32 0 0 1 0 64h-65.92a32 32 0 0 1-27.52-15.68A299.392 299.392 0 0 1 192.032 544c0-176.736 143.264-320 320-320s320 143.264 320 320a299.392 299.392 0 0 1-34.56 144.32 32 32 0 0 1-27.52 15.68z m-289.92-90.528V448a32 32 0 0 1 64 0v165.472a96.032 96.032 0 0 1-32 186.528 96 96 0 0 1-32-186.528z m32 58.528a32 32 0 1 0 0 64 32 32 0 0 0 0-64z m0-320a32 32 0 0 1-32-32V256a32 32 0 0 1 64 0v64a32 32 0 0 1-32 32z m-224 192h-32a32 32 0 0 1 0-64h32a32 32 0 0 1 0 64z m480 0h-32a32 32 0 0 1 0-64h32a32 32 0 0 1 0 64z m-384-128a31.968 31.968 0 0 1-22.72-9.28l-32-32a32 32 0 1 1 45.088-45.088l32 32A32 32 0 0 1 384.032 416z m256 0a31.968 31.968 0 0 1-22.72-54.72l32-32a32 32 0 0 1 45.12 45.12l-32 32a32.032 32.032 0 0 1-22.4 9.6z" /></svg>