<?xml version="1.0" standalone="no"?><!DOCTYPE svg PUBLIC "-//W3C//DTD SVG 1.1//EN" "http://www.w3.org/Graphics/SVG/1.1/DTD/svg11.dtd"><svg class="icon" width="200px" height="200.00px" viewBox="0 0 1024 1024" version="1.1" xmlns="http://www.w3.org/2000/svg"><path fill="#2c2c2c" d="M320 704h-32c-17.6 0-32-14.4-32-32s14.4-32 32-32h32c17.6 0 32 14.4 32 32s-14.4 32-32 32zM320 512h-32c-17.6 0-32-14.4-32-32s14.4-32 32-32h32c17.6 0 32 14.4 32 32s-14.4 32-32 32zM736 704H448c-17.6 0-32-14.4-32-32s14.4-32 32-32h288c17.6 0 32 14.4 32 32s-14.4 32-32 32zM736 512H448c-17.6 0-32-14.4-32-32s14.4-32 32-32h288c17.6 0 32 14.4 32 32s-14.4 32-32 32zM864 896H160c-52.8 0-96-43.2-96-96V288c0-52.8 43.2-96 96-96h128c17.6 0 32 14.4 32 32s-14.4 32-32 32h-128c-17.6 0-32 14.4-32 32v512c0 17.6 14.4 32 32 32h704c17.6 0 32-14.4 32-32V288c0-17.6-14.4-32-32-32h-128c-17.6 0-32-14.4-32-32s14.4-32 32-32h128c52.8 0 96 43.2 96 96v512c0 52.8-43.2 96-96 96zM528 352h-32c-52.8 0-96-43.2-96-96V128c0-52.8 43.2-96 96-96h32c52.8 0 96 43.2 96 96v128c0 52.8-43.2 96-96 96zM496 96c-17.6 0-32 14.4-32 32v128c0 17.6 14.4 32 32 32h32c17.6 0 32-14.4 32-32V128c0-17.6-14.4-32-32-32h-32z" /></svg>