<?xml version="1.0" standalone="no"?><!DOCTYPE svg PUBLIC "-//W3C//DTD SVG 1.1//EN" "http://www.w3.org/Graphics/SVG/1.1/DTD/svg11.dtd"><svg class="icon" width="200px" height="200.00px" viewBox="0 0 1024 1024" version="1.1" xmlns="http://www.w3.org/2000/svg"><path fill="#2c2c2c" d="M693.2 225.1h49.3v-49.3h-49.3v49.3z m-459.9 32.8h16.4v-115h-16.4v115z m98.5 246.4H134.7v16.4h197.1v-16.4zM216.8 800h32.9v-32.9h-32.9V800zM726 504.3h-32.9v16.4H726v-16.4z m0 262.8h-32.9V800H726v-32.9zM857.4 455v-98.6H559c-4.9-14-16-25.1-30-30v-19.2h312V93.7H184v213.5h312.1v19.2c-14 4.9-25.1 16-30 30H216.8V455H85.4v394.2h295.7V455H249.7v-65.7H466c4.9 14 16 25.1 30 30V455h-82.1v394.2H611V455h-82.1v-35.7c14-4.9 25.1-16 30-30h134.2V455h-49.3v394.2h131.4V455H726v-65.7h98.6V455h-16.4v394.2h131.4V455h-82.2z m-509.2 32.9v328.5h-230V487.9h230zM216.8 274.3V126.5h591.3v147.8H216.8z m361.4 213.6v328.5H446.8V487.9h131.4z m-65.7-98.6c-9.1 0-16.4-7.4-16.4-16.4 0-9.1 7.4-16.4 16.4-16.4s16.4 7.4 16.4 16.4c0 9.1-7.3 16.4-16.4 16.4z m230 98.6v328.5h-65.7V487.9h65.7z m164.2 328.5H841V487.9h65.7v328.5z m-16.4-49.3h-32.9V800h32.9v-32.9z m0-262.8h-32.9v16.4h32.9v-16.4z m-328.5 0h-98.6v16.4h98.6v-16.4zM496.1 800H529v-32.9h-32.9V800z"  /></svg>