<?xml version="1.0" standalone="no"?><!DOCTYPE svg PUBLIC "-//W3C//DTD SVG 1.1//EN" "http://www.w3.org/Graphics/SVG/1.1/DTD/svg11.dtd"><svg class="icon" width="200px" height="200.00px" viewBox="0 0 1024 1024" version="1.1" xmlns="http://www.w3.org/2000/svg"><path fill="#2c2c2c" d="M182.857691 731.428571v73.142858H118.857691a8.996571 8.996571 0 0 1-9.142857-9.142858v-9.142857H82.286263a8.996571 8.996571 0 0 1-9.142857-9.142857v-18.285714c0-5.156571 3.986286-9.142857 9.142857-9.142857H109.714834v-9.142857c0-5.156571 3.986286-9.142857 9.142857-9.142858H182.857691z m0-146.285714v73.142857H118.857691a8.996571 8.996571 0 0 1-9.142857-9.142857v-9.142857H82.286263a8.996571 8.996571 0 0 1-9.142857-9.142857v-18.285714c0-5.156571 3.986286-9.142857 9.142857-9.142858H109.714834v-9.142857c0-5.156571 3.986286-9.142857 9.142857-9.142857H182.857691z m0-146.285714v73.142857H118.857691a8.996571 8.996571 0 0 1-9.142857-9.142857v-9.142857H82.286263a8.996571 8.996571 0 0 1-9.142857-9.142857v-18.285715c0-5.156571 3.986286-9.142857 9.142857-9.142857H109.714834v-9.142857c0-5.156571 3.986286-9.142857 9.142857-9.142857H182.857691z m0-146.285714v73.142857H118.857691A8.996571 8.996571 0 0 1 109.714834 356.571429V347.428571H82.286263A8.996571 8.996571 0 0 1 73.143406 338.285714v-18.285714c0-5.156571 3.986286-9.142857 9.142857-9.142857H109.714834v-9.142857c0-5.156571 3.986286-9.142857 9.142857-9.142857H182.857691z m0-146.285715v73.142857H118.857691A8.996571 8.996571 0 0 1 109.714834 210.285714V201.142857H82.286263A8.996571 8.996571 0 0 1 73.143406 192v-18.285714c0-5.156571 3.986286-9.142857 9.142857-9.142857H109.714834v-9.142858c0-5.156571 3.986286-9.142857 9.142857-9.142857H182.857691z m621.714286-91.428571v841.142857a54.857143 54.857143 0 0 1-54.857143 54.857143h-475.428571A54.857143 54.857143 0 0 1 219.42912 896v-841.142857A54.857143 54.857143 0 0 1 274.286263 0h475.428571A54.857143 54.857143 0 0 1 804.571977 54.857143z m146.285714 704v18.285714c0 5.156571-3.986286 9.142857-9.142857 9.142857H914.286263v9.142857c0 5.156571-3.986286 9.142857-9.142857 9.142858H841.143406v-73.142858h64c5.156571 0 9.142857 3.986286 9.142857 9.142858v9.142857h27.428571c5.156571 0 9.142857 3.986286 9.142857 9.142857z m0-146.285714v18.285714c0 5.156571-3.986286 9.142857-9.142857 9.142857H914.286263v9.142857c0 5.156571-3.986286 9.142857-9.142857 9.142857H841.143406v-73.142857h64c5.156571 0 9.142857 3.986286 9.142857 9.142857v9.142857h27.428571c5.156571 0 9.142857 3.986286 9.142857 9.142858z m0-146.285715v18.285715c0 5.156571-3.986286 9.142857-9.142857 9.142857H914.286263v9.142857c0 5.156571-3.986286 9.142857-9.142857 9.142857H841.143406v-73.142857h64c5.156571 0 9.142857 3.986286 9.142857 9.142857v9.142857h27.428571c5.156571 0 9.142857 3.986286 9.142857 9.142857z m0-146.285714v18.285714c0 5.156571-3.986286 9.142857-9.142857 9.142857H914.286263v9.142858c0 5.156571-3.986286 9.142857-9.142857 9.142857H841.143406V292.571429h64c5.156571 0 9.142857 3.986286 9.142857 9.142857v9.142857h27.428571c5.156571 0 9.142857 3.986286 9.142857 9.142857z m0-146.285714v18.285714c0 5.156571-3.986286 9.142857-9.142857 9.142857H914.286263v9.142857c0 5.156571-3.986286 9.142857-9.142857 9.142857H841.143406V146.285714h64c5.156571 0 9.142857 3.986286 9.142857 9.142857v9.142858h27.428571c5.156571 0 9.142857 3.986286 9.142857 9.142857z"  /></svg>