<?xml version="1.0" standalone="no"?><!DOCTYPE svg PUBLIC "-//W3C//DTD SVG 1.1//EN" "http://www.w3.org/Graphics/SVG/1.1/DTD/svg11.dtd"><svg class="icon" width="200px" height="200.00px" viewBox="0 0 1024 1024" version="1.1" xmlns="http://www.w3.org/2000/svg"><path fill="#2c2c2c" d="M741.76 486.4h33.5872a38.4 38.4 0 0 1 34.9184 22.4128L851.2 598.2144V825.6a38.4 38.4 0 0 1-38.4 38.4H217.6a38.4 38.4 0 0 1-38.4-38.4V599.264l40.9792-90.3296A38.4 38.4 0 0 1 255.1488 486.4H288.64a32.1472 32.1472 0 0 1-0.64-6.4V192a32 32 0 0 1 64 0v288c0 2.1888-0.2176 4.3328-0.64 6.4h327.68a32.1472 32.1472 0 0 1-0.64-6.4V192a32 32 0 1 1 64 0v288c0 2.1888-0.2176 4.3328-0.64 6.4zM279.1552 550.4a6.4 6.4 0 0 0-5.7216 3.5392l-19.2 38.4A6.4 6.4 0 0 0 259.9552 601.6h511.6096a6.4 6.4 0 0 0 5.9904-8.6464l-14.4-38.4a6.4 6.4 0 0 0-5.9904-4.1536H279.1552z m370.4448 153.6a28.8 28.8 0 0 0 0 57.6h70.4a28.8 28.8 0 0 0 0-57.6h-70.4z m-102.4 0a28.8 28.8 0 0 0 0 57.6h12.8a28.8 28.8 0 0 0 0-57.6h-12.8z m-102.4 0a28.8 28.8 0 0 0 0 57.6h12.8a28.8 28.8 0 0 0 0-57.6h-12.8z"  /></svg>