<?xml version="1.0" standalone="no"?><!DOCTYPE svg PUBLIC "-//W3C//DTD SVG 1.1//EN" "http://www.w3.org/Graphics/SVG/1.1/DTD/svg11.dtd"><svg class="icon" width="200px" height="200.00px" viewBox="0 0 1024 1024" version="1.1" xmlns="http://www.w3.org/2000/svg"><path fill="#2c2c2c" d="M345.861 20.059l-86.292 151.727c-3.107 5.464-4.578 11.413-4.567 17.278 0 0.176 0.016 0.35 0.018 0.524-0.24 6.574 1.365 13.287 5.031 19.33 4.938 8.141 12.678 13.536 21.232 15.709l141.891 69.24c17.311 8.446 38.193 1.261 46.641-16.05 8.446-17.309 1.261-38.191-16.05-46.641l-83.911-40.946c44.929-17.37 92.947-26.444 141.7-26.54 217.61-0.425 394.994 176.267 395.419 393.875 0.425 217.611-176.267 394.995-393.877 395.42s-394.995-176.267-395.42-393.878c-0.09-45.901 7.621-90.869 22.92-133.652 6.487-18.139-2.959-38.099-21.097-44.585-18.139-6.487-38.099 2.96-44.585 21.097-18.016 50.386-27.098 103.3-26.993 157.274 0.122 62.678 12.525 123.477 36.863 180.707 23.5 55.258 57.077 104.855 99.8 147.41s92.45 75.94 147.8 99.224c57.324 24.114 118.171 36.278 180.849 36.155 62.678-0.122 123.476-12.524 180.706-36.862 55.258-23.5 104.855-57.079 147.41-99.801 42.556-42.722 75.938-92.45 99.223-147.799 24.115-57.324 36.279-118.171 36.156-180.849-0.122-62.678-12.525-123.476-36.863-180.705-23.5-55.258-57.079-104.855-99.8-147.41s-92.448-75.939-147.799-99.223c-57.324-24.114-118.17-36.278-180.848-36.155-47.674 0.093-94.765 7.482-139.677 21.717l34.756-61.11c9.525-16.745 3.669-38.035-13.076-47.56C376.68-2.541 355.386 3.312 345.861 20.059zM661.997 639.789c-34.181-34.186-85.377-41.205-126.55-21.068l-94.929-94.929 35.159-35.167c9.712-9.712 9.712-25.459 0-35.159-9.716-9.712-25.448-9.712-35.159 0l-35.16 35.167-35.163-35.167 35.167-35.156c9.711-9.7 9.711-25.444 0-35.156-9.712-9.711-25.445-9.711-35.156 0l-70.327 70.316L496.711 650.3c-33.496 43.234-30.407 105.846 9.265 145.51 21.515 21.511 49.763 32.265 78.011 32.265 28.252 0 56.5-10.754 78.011-32.265C705.02 752.796 705.02 682.799 661.997 639.789zM626.838 760.65c-23.622 23.626-62.081 23.626-85.706 0-23.622-23.637-23.622-62.069 0-85.705 11.815-11.812 27.339-17.726 42.855-17.726 15.517 0 31.041 5.915 42.856 17.726C650.463 698.581 650.463 737.013 626.838 760.65z" /></svg>